<svg width="141" height="140" viewBox="0 0 141 140" fill="none" xmlns="http://www.w3.org/2000/svg">
    <rect x="0.5" width="140" height="140" rx="12" fill="white"/>
    <g clip-path="url(#clip0_246_6584)">
        <path d="M34.2917 125H117.708C119.733 125 121.375 123.358 121.375 121.333V34.25L103.5 15H34.2917C32.2666 15 30.625 16.6416 30.625 18.6667V121.333C30.625 123.358 32.2666 125 34.2917 125Z" fill="#E6EAED"/>
        <path d="M103.5 15L121.375 34.25H106.727C104.945 34.25 103.5 32.8054 103.5 31.0233V15Z" fill="#AAB5BC"/>
        <rect x="19.625" y="78.25" width="66" height="33" rx="5.5" fill="#E65054"/>
        <path d="M37.0624 97.9688H34.9703V103.004H30.625V86.4963H37.0624C41.3847 86.4963 43.9827 88.4276 43.9827 92.1291C43.9827 95.8536 41.3847 97.9688 37.0624 97.9688ZM37.0394 90.1519H34.9703V94.3132H37.0394C38.7638 94.3132 39.6604 93.4396 39.6604 92.1751C39.6604 90.8876 38.7638 90.1519 37.0394 90.1519Z" fill="white"/>
        <path d="M52.6217 103.004H46.1842V86.4963H52.6217C57.8406 86.4963 61.1283 89.853 61.1283 94.6581C61.1283 99.4632 57.7256 103.004 52.6217 103.004ZM50.5295 90.2438V99.2563H52.3688C55.2426 99.2563 56.6681 97.7619 56.6681 94.6581C56.6681 91.7383 55.1967 90.2438 52.3688 90.2438H50.5295Z" fill="white"/>
        <path d="M67.7277 103.004H63.3825V86.4963H74.625V90.2668H67.7277V93.3246H73.4984V97.0951H67.7277V103.004Z" fill="white"/>
        <rect x="44.375" y="28.75" width="44" height="5.5" rx="2.75" fill="#AAB5BC"/>
        <rect x="44.375" y="38.8333" width="60.5" height="5.5" rx="2.75" fill="#AAB5BC"/>
        <rect x="44.375" y="48.9167" width="60.5" height="5.5" rx="2.75" fill="#AAB5BC"/>
        <rect x="44.375" y="59" width="60.5" height="5.5" rx="2.75" fill="#AAB5BC"/>
    </g>
    <defs>
        <clipPath id="clip0_246_6584">
            <rect x="19.625" y="15" width="101.75" height="110" rx="5.08083" fill="white"/>
        </clipPath>
    </defs>
</svg>
