<svg width="500" height="390" viewBox="0 0 500 390" fill="none" xmlns="http://www.w3.org/2000/svg">
<g clip-path="url(#clip0_1494_107)">
<g clip-path="url(#clip1_1494_107)">
<path d="M56.5454 240.839C84.3426 244.715 108.462 238.338 128.328 220.608L161.479 222.433L143.44 275.249C123.424 307.084 94.4757 313.711 64.6519 311.86L56.5454 241.039V240.839Z" fill="#7EAABA"></path>
<path d="M68.8804 252.742L74.3848 301.132C99.0545 300.932 118.945 292.829 133.682 270.398L146.743 232.486L132.181 231.836C114.447 246.362 91.9591 253.81 69.0555 252.742H68.8804Z" fill="#D3E8EF"></path>
<path d="M68.8804 252.742L72.133 281.501C106.185 277.45 132.706 263.471 146.517 232.561L131.956 231.836C114.237 246.354 91.7677 253.802 68.8804 252.742Z" fill="white"></path>
<path d="M64.6267 199.251C75.7718 199.246 86.668 202.545 95.9372 208.73C105.206 214.915 112.432 223.709 116.701 233.999C120.969 244.289 122.088 255.614 119.917 266.54C117.746 277.466 112.382 287.503 104.503 295.381C96.6236 303.26 86.5839 308.626 75.6533 310.801C64.7228 312.976 53.3924 311.862 43.0952 307.601C32.798 303.339 23.9966 296.121 17.8042 286.859C11.6119 277.597 8.30665 266.708 8.30665 255.568C8.30336 248.174 9.7577 240.851 12.5866 234.019C15.4154 227.186 19.5634 220.978 24.7936 215.748C30.0237 210.518 36.2335 206.369 43.0682 203.539C49.9029 200.708 57.2285 199.251 64.6267 199.251Z" fill="#7EAABA"></path>
<path d="M64.6269 210.23C55.7196 210.23 47.0123 212.87 39.6062 217.816C32.2 222.762 26.4277 229.792 23.019 238.017C19.6103 246.242 18.7185 255.293 20.4562 264.025C22.1939 272.757 26.4832 280.777 32.7816 287.072C39.08 293.368 47.1046 297.655 55.8408 299.392C64.5769 301.129 73.6321 300.237 81.8614 296.83C90.0907 293.423 97.1243 287.654 102.073 280.251C107.022 272.849 109.663 264.146 109.663 255.243C109.663 243.305 104.918 231.855 96.4721 223.414C88.0262 214.972 76.5712 210.23 64.6269 210.23Z" fill="#D3E8EF"></path>
<path d="M64.6267 210.23C57.3527 210.196 50.1804 211.937 43.7319 215.301C37.2834 218.666 31.7536 223.552 27.6221 229.535C28.3639 240.983 33.4267 251.722 41.7869 259.581C50.1471 267.44 61.1811 271.834 72.6581 271.873C79.9154 271.92 87.0753 270.203 93.5215 266.87C99.9677 263.538 105.507 258.689 109.663 252.742C108.964 241.264 103.919 230.482 95.5548 222.586C87.1901 214.69 76.1321 210.272 64.6267 210.23Z" fill="white"></path>
<path d="M58.7473 207.354C67.0508 207.354 75.1679 209.815 82.0721 214.426C88.9763 219.037 94.3574 225.59 97.535 233.258C100.713 240.925 101.544 249.363 99.9242 257.503C98.3042 265.643 94.3057 273.12 88.4342 278.988C82.5626 284.857 75.0819 288.853 66.9379 290.472C58.7938 292.092 50.3523 291.261 42.6808 288.085C35.0093 284.909 28.4524 279.53 23.8392 272.629C19.226 265.729 16.7637 257.616 16.7637 249.316C16.7604 243.805 17.8441 238.347 19.9528 233.254C22.0615 228.161 25.1539 223.534 29.0531 219.637C32.9522 215.74 37.5818 212.649 42.677 210.541C47.7721 208.434 53.233 207.35 58.7473 207.354Z" fill="#7EAABA"></path>
<path d="M55.7945 196.125C64.1327 196.125 72.2836 198.597 79.2166 203.227C86.1496 207.857 91.5532 214.438 94.744 222.138C97.9349 229.837 98.7698 238.31 97.1431 246.484C95.5164 254.658 91.5012 262.166 85.6052 268.059C79.7092 273.952 72.1972 277.965 64.0192 279.591C55.8412 281.217 47.3645 280.382 39.661 277.193C31.9575 274.004 25.3732 268.603 20.7408 261.673C16.1083 254.744 13.6357 246.597 13.6357 238.263C13.6687 227.098 18.1211 216.399 26.0202 208.504C33.9194 200.608 44.6234 196.158 55.7945 196.125Z" fill="#7F3E13"></path>
<path d="M59.848 212.33C53.222 212.33 46.7447 214.294 41.2354 217.973C35.7261 221.653 31.4321 226.882 28.8964 233.001C26.3607 239.12 25.6973 245.852 26.9899 252.348C28.2826 258.843 31.4733 264.81 36.1587 269.493C40.844 274.176 46.8134 277.365 53.3121 278.657C59.8108 279.949 66.5469 279.286 72.6686 276.751C78.7902 274.217 84.0225 269.925 87.7037 264.419C91.385 258.912 93.3498 252.438 93.3498 245.815C93.3498 236.934 89.8202 228.417 83.5374 222.138C77.2546 215.858 68.7332 212.33 59.848 212.33Z" fill="#B85A1B"></path>
<path d="M34.6027 162.09C35.3533 138.533 70.5065 137.083 71.4322 162.09C81.7404 144.785 113.966 154.363 103.958 181.421C104.509 183.622 104.884 185.647 105.234 187.848C122.748 188.773 128.428 216.181 104.509 224.659C102.739 231.669 99.5457 238.241 95.1261 243.965C74.5097 261.645 67.8794 247.091 56.8205 235.137C46.137 235.512 16.7885 227.785 24.97 255.393C6.20502 243.615 -5.95471 219.307 3.25266 183.622C-9.55759 154.913 23.9442 144.235 34.6027 161.915V162.09Z" fill="#7F3E13"></path>
<path d="M14.3866 187.723C9.95807 204.953 9.78293 224.459 22.0928 238.463C39.4066 258.144 74.3596 257.218 87.8204 232.386C95.0011 218.957 94.6258 202.202 91.4983 187.373C65.9603 182.258 39.6485 182.385 14.1614 187.748L14.3866 187.723Z" fill="#B85A1B"></path>
<path d="M14.3866 187.723C9.95807 204.953 9.78293 224.459 22.0928 238.463C25.9971 242.793 30.7666 246.257 36.0933 248.63C41.42 251.003 47.1855 252.234 53.0175 252.242V183.621C40.0472 183.886 27.1232 185.258 14.3866 187.723Z" fill="#E1762F"></path>
<path d="M31.3249 200.927C28.8229 210.48 28.8229 221.533 35.7284 229.26C45.311 240.239 64.8267 239.739 72.3827 225.759C76.4109 218.257 76.2358 209.004 74.4093 200.752C60.1858 197.867 45.5209 197.935 31.3249 200.952" fill="#7F3E13"></path>
<path d="M52.8672 174.419C55.4551 174.419 57.9371 173.391 59.767 171.562C61.5969 169.733 62.625 167.253 62.625 164.666C62.625 162.079 61.5969 159.599 59.767 157.77C57.9371 155.94 55.4551 154.913 52.8672 154.913V174.419ZM88.1954 162.09C90.1254 162.09 92.0119 162.662 93.6166 163.734C95.2213 164.805 96.4719 166.329 97.2105 168.111C97.949 169.893 98.1423 171.854 97.7658 173.746C97.3893 175.638 96.4599 177.375 95.0953 178.739C93.7306 180.103 91.9919 181.032 90.0991 181.409C88.2063 181.785 86.2443 181.592 84.4613 180.854C82.6783 180.115 81.1543 178.865 80.0821 177.261C79.0099 175.658 78.4376 173.772 78.4376 171.843C78.4508 169.26 79.4831 166.787 81.3102 164.961C83.1373 163.135 85.6116 162.103 88.1954 162.09Z" fill="#B85A1B"></path>
<path d="M19.5908 163.19C21.5207 163.19 23.4073 163.762 25.012 164.834C26.6166 165.906 27.8673 167.429 28.6059 169.211C29.3444 170.993 29.5376 172.954 29.1611 174.846C28.7846 176.738 27.8553 178.476 26.4906 179.84C25.126 181.204 23.3873 182.133 21.4945 182.509C19.6016 182.885 17.6397 182.692 15.8567 181.954C14.0737 181.216 12.5497 179.966 11.4775 178.362C10.4053 176.758 9.83301 174.872 9.83301 172.943C9.85264 170.363 10.887 167.893 12.7127 166.069C14.5384 164.244 17.009 163.21 19.5908 163.19ZM52.8674 174.419V155.213C50.2795 155.213 47.7976 156.241 45.9676 158.07C44.1377 159.899 43.1096 162.379 43.1096 164.966C43.1096 167.553 44.1377 170.033 45.9676 171.862C47.7976 173.691 50.2795 174.719 52.8674 174.719V174.544V174.419Z" fill="#E1762F"></path>
<path d="M99.0542 197.426C100.984 197.426 102.871 197.998 104.475 199.069C106.08 200.141 107.331 201.664 108.069 203.446C108.808 205.228 109.001 207.189 108.625 209.081C108.248 210.973 107.319 212.711 105.954 214.075C104.589 215.439 102.851 216.368 100.958 216.744C99.065 217.12 97.103 216.927 95.32 216.189C93.537 215.451 92.0131 214.201 90.9409 212.597C89.8687 210.993 89.2964 209.108 89.2964 207.179C89.3095 204.596 90.3418 202.123 92.1689 200.297C93.996 198.471 96.4703 197.439 99.0542 197.426Z" fill="#B85A1B"></path>
<path d="M433.947 312.61C431.72 283.352 418.485 262.37 392.339 250.967L397.493 230.711L439.452 219.507C476.106 230.536 490.467 253.918 497.448 283.352L434.122 312.76L433.947 312.585V312.61Z" fill="#7EAABA"></path>
<path d="M442.579 296.605L484.388 277.099C476.882 252.617 464.872 236.787 439.101 230.536L406.325 239.363L404.899 244.89C414.525 250.233 422.87 257.611 429.352 266.508C435.834 275.405 440.296 285.608 442.429 296.405L442.604 296.605H442.579Z" fill="white"></path>
<path d="M393.44 317.587C390.047 307.323 389.777 296.284 392.662 285.866C395.548 275.449 401.46 266.121 409.651 259.062C417.842 252.004 427.943 247.532 438.677 246.213C449.411 244.894 460.295 246.787 469.953 251.652C479.611 256.516 487.608 264.135 492.932 273.544C498.257 282.952 500.67 293.728 499.866 304.507C499.063 315.287 495.078 325.586 488.417 334.102C481.756 342.617 472.717 348.967 462.445 352.347C448.679 356.884 433.674 355.77 420.729 349.252C407.784 342.733 397.959 331.344 393.415 317.587" fill="#7EAABA"></path>
<path d="M402.397 314.436C405.195 322.921 410.449 330.386 417.493 335.887C424.537 341.387 433.056 344.676 441.97 345.337C450.885 345.998 459.795 344.001 467.574 339.599C475.353 335.197 481.651 328.588 485.671 320.608C489.691 312.628 491.252 303.635 490.158 294.768C489.064 285.901 485.363 277.557 479.523 270.792C473.683 264.028 465.967 259.147 457.351 256.766C448.735 254.386 439.607 254.613 431.12 257.419C425.479 259.263 420.258 262.204 415.758 266.072C411.257 269.94 407.566 274.659 404.897 279.958C402.228 285.257 400.633 291.031 400.204 296.947C399.775 302.864 400.52 308.808 402.397 314.436Z" fill="#D3E8EF"></path>
<path d="M490.092 294.205C489.735 291.451 489.115 288.738 488.241 286.102C486.393 280.463 483.448 275.245 479.575 270.748C475.702 266.25 470.978 262.563 465.674 259.897C460.37 257.231 454.591 255.64 448.67 255.215C442.748 254.789 436.801 255.539 431.17 257.419C424.144 259.645 417.805 263.631 412.755 268.997C413.109 271.752 413.729 274.465 414.607 277.1C416.452 282.741 419.395 287.962 423.267 292.462C427.139 296.962 431.863 300.652 437.167 303.321C442.471 305.989 448.251 307.582 454.174 308.009C460.096 308.436 466.045 307.688 471.677 305.808C478.701 303.564 485.038 299.571 490.092 294.205Z" fill="white"></path>
<path d="M383.131 331.566C379.923 321.885 379.661 311.469 382.378 301.639C385.095 291.808 390.669 283.004 398.394 276.341C406.119 269.678 415.649 265.456 425.776 264.209C435.903 262.961 446.173 264.745 455.286 269.334C464.398 273.923 471.944 281.111 476.967 289.988C481.991 298.865 484.266 309.033 483.506 319.203C482.745 329.373 478.983 339.09 472.695 347.122C466.408 355.154 457.877 361.142 448.183 364.326C441.76 366.453 434.98 367.293 428.232 366.797C421.484 366.301 414.9 364.48 408.857 361.437C402.814 358.393 397.431 354.189 393.017 349.063C388.602 343.937 385.243 337.991 383.131 331.566Z" fill="#7F3E13"></path>
<path d="M393.615 328.24C391.109 320.635 390.913 312.459 393.053 304.744C395.192 297.028 399.571 290.119 405.637 284.89C411.702 279.66 419.182 276.344 427.131 275.36C435.081 274.376 443.144 275.768 450.303 279.361C457.461 282.955 463.394 288.587 467.352 295.548C471.31 302.509 473.115 310.486 472.54 318.472C471.966 326.457 469.036 334.094 464.122 340.417C459.209 346.74 452.53 351.466 444.931 353.998C434.725 357.358 423.602 356.533 414.004 351.704C404.406 346.874 397.118 338.435 393.74 328.24" fill="#B85A1B"></path>
<path d="M391.964 309.109C393.56 299.278 398.715 290.377 406.449 284.096C414.183 277.816 423.956 274.595 433.91 275.046C443.865 275.496 453.306 279.587 460.44 286.541C467.574 293.494 471.903 302.826 472.603 312.76C446.457 329.315 412.205 325.639 391.964 308.909V309.084V309.109Z" fill="#E1762F"></path>
<path d="M204.739 0.166626C225.355 0.166626 241.919 17.8219 241.919 39.5534C241.919 61.2849 225.355 78.9152 204.739 78.9152C184.122 78.9152 167.559 61.2599 167.559 39.5534C167.559 17.8469 184.122 0.166626 204.739 0.166626Z" fill="#7F3E13"></path>
<path d="M204.739 11.0199C189.452 11.0199 178.418 24.649 178.418 39.5534C178.418 54.4579 189.452 68.062 204.739 68.062C220.026 68.062 231.06 54.4579 231.06 39.5534C231.06 24.649 220.026 11.0199 204.739 11.0199Z" fill="#B85A1B"></path>
<path d="M204.739 21.8732C195.356 21.8732 189.276 30.7008 189.276 39.5535C189.276 48.4061 195.531 57.2088 204.739 57.2088C213.946 57.2088 220.201 48.3811 220.201 39.5535C220.201 30.7258 213.946 21.8732 204.739 21.8732Z" fill="#63300F"></path>
<path d="M362.865 0.166626C383.482 0.166626 400.07 17.8219 400.07 39.5534C400.07 61.2849 383.482 78.9152 362.865 78.9152C342.249 78.9152 325.686 61.2599 325.686 39.5534C325.686 17.8469 342.349 0.166626 362.865 0.166626Z" fill="#7F3E13"></path>
<path d="M362.865 11.0199C347.603 11.0199 336.544 24.649 336.544 39.5534C336.544 54.4579 347.603 68.062 362.865 68.062C378.128 68.062 389.212 54.4579 389.212 39.5534C389.212 24.649 378.153 11.0199 362.865 11.0199Z" fill="#B85A1B"></path>
<path d="M362.865 21.8732C353.483 21.8732 347.403 30.7008 347.403 39.5535C347.403 48.4061 353.683 57.2088 362.865 57.2088C372.048 57.2088 378.328 48.3811 378.328 39.5535C378.328 30.7258 372.073 21.8732 362.865 21.8732Z" fill="#4F2800"></path>
<path d="M298.814 18.5722C301.145 18.5722 303.423 19.263 305.361 20.5572C307.299 21.8515 308.81 23.691 309.702 25.8433C310.593 27.9955 310.827 30.3638 310.372 32.6486C309.917 34.9334 308.795 37.0321 307.147 38.6794C305.499 40.3266 303.399 41.4484 301.113 41.9029C298.827 42.3574 296.458 42.1241 294.304 41.2326C292.151 40.3412 290.311 38.8315 289.016 36.8945C287.721 34.9575 287.03 32.6803 287.03 30.3507C287.049 27.2329 288.297 24.2484 290.503 22.0438C292.709 19.8391 295.695 18.5918 298.814 18.5722ZM268.79 18.5722C271.122 18.5672 273.403 19.2538 275.344 20.545C277.285 21.8363 278.8 23.6741 279.695 25.8259C280.591 27.9777 280.828 30.3468 280.376 32.6332C279.924 34.9197 278.804 37.0207 277.157 38.6705C275.51 40.3203 273.41 41.4445 271.123 41.901C268.837 42.3576 266.466 42.1258 264.311 41.235C262.156 40.3443 260.315 38.8346 259.019 36.8971C257.723 34.9596 257.031 32.6813 257.031 30.3507C257.05 27.2372 258.295 24.2564 260.495 22.0525C262.696 19.8485 265.675 18.5984 268.79 18.5722Z" fill="#7F3E13"></path>
<path d="M421.237 67.6869V140.934L421.963 141.109C427.151 143.069 431.612 146.573 434.744 151.148C437.876 155.723 439.528 161.148 439.477 166.692V219.207L283.927 270.548L128.353 220.533V166.692C128.309 161.15 129.964 155.728 133.095 151.154C136.226 146.581 140.683 143.075 145.867 141.109L146.618 140.934V67.5118C146.618 16.9217 421.287 16.9217 421.287 67.5118V67.6869H421.237Z" fill="#7F3E13"></path>
<path d="M158.902 70.4626V149.386L152.447 151.887C148.991 153.202 146.025 155.55 143.952 158.611C141.88 161.672 140.801 165.297 140.863 168.992V224.659L283.902 270.648L426.942 223.559V169.067C426.977 165.374 425.885 161.758 423.81 158.702C421.736 155.646 418.779 153.295 415.333 151.962L408.902 149.461V70.4626C408.902 32.9514 159.077 32.9514 159.077 70.4626H158.902Z" fill="#B85A1B"></path>
<path d="M158.902 70.4626V149.386L152.447 151.887C148.991 153.202 146.025 155.55 143.952 158.611C141.88 161.672 140.801 165.297 140.863 168.992V224.659L283.902 270.648V240.464C234.388 240.664 184.848 208.279 197.934 144.06H283.902V42.4792C221.502 42.4792 158.802 51.8571 158.802 70.6377V70.4626H158.902Z" fill="#E1762F"></path>
<path d="M191.103 127.305H377.052C403.373 266.797 162.755 265.696 191.103 127.305Z" fill="#E5895B"></path>
<path d="M200.31 138.158C197.808 159.689 202.337 180.496 218.35 196.676C235.288 213.606 260.884 220.958 284.452 220.783C306.97 220.608 331.215 213.431 347.953 197.426C364.692 181.421 369.871 160.215 367.669 138.158H200.31Z" fill="#E5895B"></path>
<path d="M315.002 203.303C327.512 219.507 363.991 212.88 353.107 178.645L315.002 203.303Z" fill="#FAD395"></path>
<path d="M303.593 199.801C317.579 217.832 363.24 207.304 352.757 168.167L303.593 199.801Z" fill="#4F2800"></path>
<path d="M345.576 169.817C346.265 169.659 346.978 169.638 347.674 169.756C348.371 169.874 349.038 170.128 349.635 170.505C350.233 170.881 350.75 171.373 351.157 171.95C351.564 172.527 351.853 173.179 352.006 173.869C352.427 175.232 352.299 176.705 351.65 177.976C351 179.246 349.88 180.213 348.529 180.671C347.839 180.83 347.124 180.851 346.426 180.733C345.727 180.616 345.059 180.361 344.459 179.985C343.86 179.609 343.34 179.118 342.931 178.54C342.521 177.962 342.23 177.31 342.073 176.619C341.654 175.253 341.785 173.777 342.44 172.506C343.094 171.235 344.22 170.27 345.576 169.817ZM315.752 190.424C316.818 190.017 317.981 189.942 319.091 190.208C320.2 190.474 321.202 191.069 321.967 191.915C322.731 192.761 323.222 193.819 323.374 194.948C323.526 196.078 323.333 197.227 322.82 198.246C322.307 199.264 321.498 200.103 320.499 200.653C319.5 201.203 318.358 201.439 317.223 201.328C316.088 201.218 315.012 200.767 314.138 200.035C313.264 199.303 312.632 198.324 312.325 197.226C311.918 195.859 312.055 194.389 312.708 193.121C313.361 191.853 314.479 190.887 315.827 190.424" fill="white"></path>
<path d="M334.167 206.628C339.482 205.037 344.212 201.921 347.771 197.666C351.329 193.412 353.559 188.206 354.183 182.696C346.077 181.596 332.091 193.374 334.167 206.628Z" fill="#AD6151"></path>
<path d="M210.268 127.305H357.711C378.528 226.86 187.8 225.934 210.268 127.305Z" fill="#FAD395"></path>
<path d="M283.902 183.997C284.752 177.954 287.167 172.239 290.908 167.417C308.572 164.666 323.859 151.237 319.055 127.13C307.806 123.144 295.963 121.09 284.027 121.053L276.847 143.885L284.027 184.172L283.852 183.997H283.902Z" fill="#4F2800"></path>
<path d="M283.902 183.997C283.052 177.954 280.637 172.239 276.896 167.417C259.232 164.666 243.945 151.237 248.724 127.13C259.975 123.148 271.817 121.094 283.752 121.053V183.997H283.902Z" fill="#63300F"></path>
<path d="M257.756 130.631C274.883 126.03 292.921 126.03 310.048 130.631C317.404 148.836 249.85 148.661 257.756 130.631Z" fill="#AD6151"></path>
<path d="M255.73 80.0155C259.63 80.0106 263.445 81.1621 266.69 83.3244C269.936 85.4867 272.467 88.5626 273.963 92.1629C275.459 95.7633 275.853 99.7263 275.095 103.55C274.337 107.375 272.461 110.888 269.705 113.647C266.948 116.405 263.436 118.284 259.61 119.047C255.785 119.809 251.82 119.42 248.216 117.93C244.612 116.439 241.531 113.913 239.363 110.672C237.196 107.431 236.039 103.62 236.039 99.7214C236.046 94.5014 238.122 89.4968 241.812 85.8034C245.503 82.1099 250.507 80.0287 255.73 80.0155Z" fill="white"></path>
<path d="M257.281 86.8425C260.196 86.8425 263.047 87.707 265.471 89.3266C267.895 90.9462 269.784 93.2481 270.898 95.941C272.013 98.6339 272.303 101.597 271.733 104.455C271.162 107.313 269.756 109.937 267.692 111.996C265.629 114.055 263.001 115.456 260.14 116.021C257.28 116.587 254.316 116.292 251.624 115.173C248.932 114.054 246.632 112.162 245.015 109.737C243.399 107.311 242.539 104.461 242.544 101.547C242.557 97.6468 244.115 93.9106 246.876 91.1551C249.638 88.3996 253.379 86.8491 257.281 86.8425Z" fill="#1B1D23"></path>
<path d="M312.325 80.0155C308.426 80.0155 304.614 81.1712 301.372 83.3365C298.129 85.5019 295.602 88.5795 294.11 92.1803C292.618 95.7811 292.227 99.7433 292.988 103.566C293.749 107.388 295.627 110.9 298.384 113.656C301.141 116.412 304.654 118.288 308.479 119.049C312.303 119.809 316.267 119.419 319.87 117.927C323.473 116.436 326.552 113.91 328.718 110.669C330.885 107.429 332.041 103.619 332.041 99.7214C332.034 94.4971 329.955 89.4887 326.259 85.7945C322.563 82.1004 317.552 80.0221 312.325 80.0155Z" fill="white"></path>
<path d="M310.949 86.8425C308.033 86.8425 305.183 87.707 302.759 89.3266C300.335 90.9462 298.446 93.2481 297.331 95.941C296.217 98.6339 295.926 101.597 296.497 104.455C297.068 107.313 298.474 109.937 300.537 111.996C302.601 114.055 305.229 115.456 308.089 116.021C310.949 116.587 313.913 116.292 316.606 115.173C319.298 114.054 321.598 112.162 323.214 109.737C324.83 107.311 325.69 104.461 325.685 101.547C325.672 97.6468 324.115 93.9106 321.353 91.1551C318.591 88.3996 314.851 86.8491 310.949 86.8425Z" fill="#1B1D23"></path>
<path d="M270.091 73.5887C256.057 70.542 241.387 73.1189 229.234 80.7658C224.98 56.6586 265.663 49.4814 270.091 73.5887Z" fill="#63300F"></path>
<path d="M294.035 61.4349C308.054 58.4235 322.695 60.9985 334.843 68.612C339.071 44.5048 298.389 37.3276 293.985 61.4349" fill="#4F2800"></path>
<path d="M439.276 219.507V370.928C439.263 375.805 437.319 380.479 433.868 383.928C430.418 387.377 425.741 389.32 420.862 389.333H146.567C141.687 389.32 137.011 387.377 133.56 383.928C130.11 380.479 128.166 375.805 128.152 370.928V220.883L283.727 258.069L439.276 219.607V219.507Z" fill="#7EAABA"></path>
<path d="M426.941 235.237L283.902 270.573L140.662 236.437V367.627C140.652 368.838 140.884 370.039 141.343 371.16C141.802 372.281 142.48 373.3 143.337 374.156C144.194 375.013 145.213 375.69 146.334 376.149C147.456 376.608 148.658 376.839 149.87 376.829H417.734C418.946 376.839 420.148 376.608 421.269 376.149C422.391 375.69 423.41 375.013 424.267 374.156C425.124 373.3 425.802 372.281 426.261 371.16C426.72 370.039 426.951 368.838 426.941 367.627V235.237Z" fill="#D3E8EF"></path>
<path d="M283.902 270.648L140.863 236.437V367.627C140.853 368.838 141.084 370.039 141.543 371.16C142.002 372.281 142.68 373.3 143.537 374.156C144.394 375.013 145.413 375.69 146.535 376.149C147.656 376.608 148.858 376.84 150.07 376.83H283.902V270.648Z" fill="white"></path>
<path d="M283.902 341.119H404.123V357.324H284.027V341.119H283.902ZM283.902 307.834H404.123V324.014H284.027V307.759L283.902 307.834Z" fill="#036AAB"></path>
<path d="M283.902 357.324V341.119H163.806V357.324H283.902ZM163.681 307.759H283.902V323.939H163.806V307.759H163.681Z" fill="#0399ED"></path>
<path d="M212.47 297.331H227.557V370.753H212.47V297.331Z" fill="white"></path>
<path d="M170.136 230.711C208.042 239.738 245.972 248.941 283.727 257.969L243.22 296.23C216.899 280.776 190.928 263.72 170.136 230.711Z" fill="#7EAABA"></path>
<path d="M202.237 251.142C214.126 262.489 227.281 272.433 241.443 280.776L258.582 264.571C239.792 260.17 221.052 255.568 202.237 251.142Z" fill="white"></path>
<path d="M397.393 230.711C359.463 239.738 321.532 248.941 283.802 257.969L324.31 296.23C350.631 280.776 376.576 263.72 397.393 230.711Z" fill="#7EAABA"></path>
<path d="M365.267 251.142C353.383 262.495 340.227 272.439 326.061 280.776L308.947 264.571C327.712 260.17 346.477 255.568 365.267 251.142Z" fill="white"></path>
</g>
</g>
<defs>
<clipPath id="clip0_1494_107">
<rect width="500" height="390" fill="white"></rect>
</clipPath>
<clipPath id="clip1_1494_107">
<rect width="500" height="389.167" fill="white" transform="translate(0 0.166626)"></rect>
</clipPath>
</defs>
</svg>