<svg width="520" height="160" viewBox="0 0 520 160" fill="none" xmlns="http://www.w3.org/2000/svg">
<path d="M197.267 125.148C195.331 125.15 193.4 124.969 191.498 124.606L190.383 124.415L190.192 123.268C190.014 121.649 189.95 120.019 190.001 118.392V108.289C190.001 106.696 190.001 105.103 190.001 103.286C190.001 101.469 190.001 99.6849 190.001 97.8365V77.1219C190.001 73.3933 190.001 69.8558 190.001 66.3184C190.001 62.781 190.001 59.9447 190.001 56.7578C186.509 56.7532 183.096 55.7226 180.185 53.7941L179.452 53.2204V52.2962C180.313 45.317 181.46 43.5324 185.826 42.1939C186.463 42.0027 187.069 41.8752 187.897 41.684L189.809 41.2697C189.788 37.4977 190.022 33.7285 190.511 29.9882C192.933 2.16695 216.005 -0.00012207 223.112 -0.00012207C230.219 -0.00012207 235.031 1.30649 237.644 3.60103L238.313 4.30214C239.216 5.56877 239.624 7.12158 239.461 8.66814C239.278 10.1654 238.903 11.6329 238.345 13.0341C237.824 14.4232 237.057 15.7076 236.083 16.8265L235.891 17.0177H235.668C234.537 17.572 233.295 17.866 232.035 17.8782C231.452 17.8812 230.872 17.7952 230.314 17.6232H230.091H229.9C229.727 17.4826 229.517 17.3942 229.295 17.3683H229.04H228.817C226.949 16.9218 225.032 16.7183 223.112 16.7628C217.949 16.7628 211.894 18.5155 211.225 32.3146C211.225 35.1828 211.225 37.7323 211.225 40.6961H216.93C220.595 40.6961 226.012 40.5367 228.116 40.3774H229.964V42.2576C229.486 51.149 228.562 54.3677 224.1 56.0249L223.367 56.3436L222.22 56.8216H222.029H221.869C218.308 57.1203 214.734 57.2373 211.161 57.1721C211.161 76.6439 211.353 102.68 211.512 119.029C211.657 120.17 211.424 121.327 210.848 122.323C210.272 123.319 209.386 124.098 208.325 124.542C204.662 125.05 200.963 125.253 197.267 125.148Z" fill="#5E5D5D"></path>
<path d="M261.098 127.028C236.974 127.028 225.246 112.623 225.246 82.9538C225.246 54.6226 238.503 38.3378 261.64 38.3378C284.777 38.3378 297.11 53.4116 297.11 81.934C297.11 109.755 283.247 127.028 261.098 127.028ZM261.098 54.6226C252.589 54.6226 247.522 64.9799 247.522 82.2846C247.522 101.406 252.207 110.966 261.449 110.966C270.117 110.966 274.897 100.8 274.897 82.2846C274.897 63.7689 270.372 54.6226 261.098 54.6226Z" fill="#5E5D5D"></path>
<path d="M304.281 125.148V123.491C304.44 115.715 304.632 103.732 304.632 89.6463V60.9645C304.658 56.7801 303.935 52.6247 302.496 48.6951L302.178 47.7072L302.879 46.9742C305.189 44.9364 307.873 43.367 310.782 42.3533C311.803 41.9853 312.886 41.8228 313.969 41.8752C315.231 41.7212 316.511 41.8922 317.687 42.3719C318.864 42.8515 319.899 43.624 320.693 44.6159C323.536 42.9377 326.535 41.5396 329.649 40.4411C332.25 39.3835 335.03 38.8319 337.839 38.8158C338.703 38.8137 339.566 38.8776 340.42 39.0071C348.132 39.8038 349.981 43.15 350.331 45.094C350.406 49.3387 349.243 53.5135 346.985 57.1084L346.634 57.5864H346.093C345.07 57.9413 343.985 58.0824 342.906 58.0007C341.169 57.9951 339.434 57.878 337.711 57.6502C337.063 57.4372 336.386 57.3296 335.704 57.3315C333.887 57.2289 332.068 57.4857 330.351 58.0873C328.634 58.6888 327.052 59.6233 325.697 60.837V114.058C325.918 116.851 325.212 119.64 323.689 121.993V122.216H323.498C320.311 124.67 316.965 124.765 306.066 124.765L304.281 125.148Z" fill="#5E5D5D"></path>
<path d="M437.778 125.148L437.332 124.256C436.216 122.065 435.638 119.64 435.643 117.181V70.9716C435.643 57.9373 433.062 55.6747 427.676 55.6747C423.481 55.9704 419.548 57.8231 416.649 60.8693V119.762C416.649 121.579 415.853 123.969 411.996 124.925C409.763 125.153 407.516 125.228 405.272 125.148H394.947V123.459C395.265 114.95 395.265 103.924 395.265 91.1763V70.8123C395.265 57.778 392.652 55.4835 387.139 55.4835C382.877 55.6949 378.865 57.5581 375.953 60.678V114.855C376.18 117.568 375.372 120.266 373.69 122.408C370.504 124.957 367.667 124.957 356.418 124.957H354.474V123.3C354.474 114.759 354.474 103.669 354.474 90.7939V60.5187C354.546 56.3364 353.888 52.1737 352.53 48.2174L352.211 47.3251L352.848 46.5921C355.127 44.4553 357.846 42.8452 360.815 41.8756C361.73 41.5725 362.688 41.4218 363.652 41.4294C364.927 41.396 366.193 41.6444 367.361 42.1567C368.529 42.669 369.569 43.4326 370.408 44.3932C373.386 42.5492 376.603 41.123 379.968 40.1547C383.714 38.8933 387.649 38.2895 391.6 38.37C392.836 38.3441 394.071 38.408 395.297 38.5612C400.968 38.8059 406.344 41.1584 410.371 45.158C413.583 43.0724 417.069 41.4422 420.728 40.314C424.347 39.0732 428.153 38.4693 431.978 38.5294C433.288 38.4842 434.599 38.5482 435.898 38.7206C454.541 40.314 457.09 55.4835 457.09 70.1112V98.5379C457.09 106.888 457.09 114.759 457.409 120.687V121.579L456.708 122.089C453.521 124.575 449.888 125.276 438.766 125.276L437.778 125.148Z" fill="#5E5D5D"></path>
<path d="M488.323 126.869C476.373 126.869 466.398 123.076 464.071 117.659V117.372V117.021C464.309 113.325 465.603 109.774 467.8 106.792L468.31 106.154H470.827C472.403 106.184 473.955 106.543 475.385 107.206L476.596 107.652C480.236 109.26 484.154 110.147 488.132 110.265C489.073 110.218 490.009 110.112 490.937 109.947C491.894 109.911 492.835 109.682 493.702 109.275C494.569 108.868 495.346 108.29 495.985 107.576C496.625 106.863 497.114 106.027 497.424 105.121C497.733 104.214 497.857 103.254 497.788 102.298C497.788 98.7926 496.067 96.1475 491.988 93.3749C491.386 92.9056 490.758 92.4694 490.108 92.0683L490.586 91.2079L489.917 92.0046C485.806 89.1364 481.248 85.4396 478.157 82.8264L473.919 79.4483C471.344 77.2187 469.26 74.478 467.801 71.4002C466.342 68.3224 465.538 64.9749 465.442 61.5701C465.442 47.4523 476.819 38.3697 494.442 38.3697C496.18 38.364 497.916 38.4812 499.637 38.7203C511.205 39.6126 516.718 44.5204 517.579 47.5797V47.8028V48.0259C517.255 51.5626 515.953 54.9394 513.818 57.7777L513.181 58.6063L512.129 58.3513C511.683 58.3513 510.631 58.0326 509.771 57.8733L508.783 57.6821C506.781 57.3709 504.809 56.8912 502.887 56.248C500.622 55.3171 498.198 54.8303 495.749 54.8139C490.809 54.8139 487.622 57.2678 487.622 61.0283C487.622 63.1635 488.323 65.1075 491.638 67.8163L492.211 68.1987C493.996 69.5372 496.29 71.1944 498.744 72.8834C500.656 74.4131 502.696 75.8472 504.608 77.2494C506.52 78.6516 507.476 79.3209 508.719 80.2769C516.431 86.6506 520.001 93.1837 520.001 100.768C519.841 116.607 507.444 126.869 488.323 126.869Z" fill="#5E5D5D"></path>
<path d="M66.8604 126.009C64.031 123.544 61.899 120.379 60.6778 116.831L59.5306 112.783L58.4152 108.768C58.1283 107.78 57.8734 106.824 57.6503 105.963L57.236 104.338C55.547 97.327 53.7623 89.4236 52.392 83.2093C51.0216 88.7544 49.492 94.6819 48.0579 100.131L43.3732 118.01V118.169C43.364 118.328 43.364 118.488 43.3732 118.647C43.3732 118.647 43.3732 118.902 43.3732 119.061C42.4809 122.089 41.7797 124.479 38.3698 125.626C36.8082 125.881 33.6851 126.041 27.3433 126.391H26.7378L26.2598 126.009C23.2815 123.594 21.0585 120.375 19.8542 116.735L16.6673 104.721C13.8947 94.5226 10.5804 82.4125 7.61662 71.5772C6.15066 66.0639 1.68904 49.2692 0.350557 46.3373L0 45.5724L0.414307 44.8395C2.39016 41.302 8.06278 39.7405 18.7706 39.7405H19.3442L19.7904 40.091C21.7252 41.8738 23.0611 44.2115 23.6147 46.7834C25.1443 53.4758 26.8015 60.6781 28.5861 67.6892C29.1598 70.2706 29.6697 72.852 30.1796 75.3058C30.562 77.2498 30.9444 79.1301 31.3268 80.8829L32.9203 88.7225C32.9203 89.2643 33.1115 89.7423 33.2071 90.1885C34.0357 86.6511 35.0236 82.54 36.0115 78.3015C36.9995 74.063 42.3853 52.5198 43.182 48.3769C43.3792 47.8239 43.4867 47.2429 43.5007 46.656V44.5845L43.8193 44.1383C44.9985 42.6087 54.1129 40.9515 57.4272 40.9515C58.1563 40.9294 58.885 41.0044 59.5943 41.1746H59.9767L60.2635 41.4614C62.3711 43.5717 63.6973 46.3366 64.024 49.3011C65.9043 57.5232 68.2944 67.6255 70.8758 78.2378C71.2264 79.7993 71.545 81.4246 71.8637 82.9224C72.3099 85.0576 72.7561 87.1928 73.2659 89.2962C73.2659 89.7742 73.4571 90.1885 73.5527 90.5709C75.0187 84.4521 76.5165 77.4092 78.0462 70.0794L78.8111 66.6057C80.5639 59.3715 81.9979 52.3286 83.5914 45.0307V44.5526V43.9153V43.6603C83.832 42.8837 84.198 42.1517 84.6749 41.4932V41.302H84.8661C86.2305 40.2873 87.921 39.8108 89.6145 39.9636C93.6565 40.1198 97.6769 40.6317 101.629 41.4932C102.129 41.7703 102.566 42.1486 102.912 42.6041C103.258 43.0595 103.504 43.5821 103.637 44.1383C103.854 46.2984 103.571 48.4795 102.808 50.5121L102.203 52.0418C101.023 55.9935 99.7806 60.5507 98.4422 65.4266C97.4861 69.0277 96.4344 72.8201 95.2553 76.6762C91.3036 91.4313 87.1288 106.696 83.6232 118.105C83.5441 118.247 83.48 118.397 83.432 118.552V119.189C82.7628 121.993 82.1254 124.67 78.588 125.849C77.122 126.073 74.3176 126.232 68.7725 126.551H66.956L66.8604 126.009Z" fill="#B85A1B"></path>
<path d="M118.647 159.407C116.223 159.348 113.81 159.049 111.445 158.515L110.361 158.26L110.17 157.176C109.601 151.341 109.42 145.475 109.628 139.617V60.71C109.741 56.5899 109.137 52.4815 107.844 48.568L107.589 47.8669L108.003 47.1977C110.085 44.7495 112.847 42.9748 115.938 42.0987C116.871 41.8203 117.834 41.6598 118.807 41.6207C120.087 41.6038 121.355 41.8626 122.527 42.3795C123.698 42.8964 124.744 43.6593 125.595 44.6163C128.518 42.8034 131.627 41.3077 134.868 40.1547C138.437 38.8292 142.216 38.1599 146.022 38.1789C166.546 38.1789 178.305 52.3923 178.305 77.1223C178.305 96.9764 172.76 111.891 162.371 120.177C156.854 124.751 149.873 127.184 142.708 127.029C138.712 127.152 134.73 126.502 130.98 125.116V148.189C131.053 150.723 130.936 153.258 130.63 155.774V156.443L129.419 157.367C126.04 158.89 122.349 159.589 118.647 159.407ZM130.885 107.111C133.401 109.381 136.643 110.681 140.031 110.776C147.68 110.776 155.965 102.235 155.965 78.3333C155.965 57.8418 148.285 55.4835 142.517 55.4835C138.236 55.8551 134.19 57.5988 130.98 60.455L130.885 107.111Z" fill="#B85A1B"></path>
</svg>