<svg xmlns="http://www.w3.org/2000/svg" width="43.543" height="74.662" viewBox="0 0 43.543 74.662" fill="none">
  <path d="M 6.809 74.645 C 5.316 74.608 3.831 74.424 2.374 74.095 L 1.707 73.938 L 1.589 73.271 C 1.239 69.679 1.127 66.067 1.256 62.459 L 1.256 13.873 C 1.325 11.337 0.953 8.807 0.157 6.397 L 0 5.966 L 0.255 5.553 C 1.537 4.046 3.237 2.953 5.141 2.414 C 5.715 2.242 6.309 2.144 6.907 2.119 C 7.695 2.109 8.477 2.268 9.198 2.587 C 9.919 2.905 10.563 3.375 11.087 3.964 C 12.887 2.848 14.801 1.927 16.797 1.217 C 18.994 0.401 21.321 -0.011 23.665 0 C 36.302 0 43.543 8.752 43.543 23.979 C 43.543 36.204 40.128 45.387 33.731 50.489 C 30.334 53.306 26.036 54.804 21.624 54.708 C 19.164 54.784 16.712 54.384 14.403 53.531 L 14.403 67.738 C 14.448 69.298 14.376 70.859 14.187 72.408 L 14.187 72.82 L 13.442 73.389 C 11.361 74.326 9.088 74.757 6.809 74.645 L 6.809 74.645 Z M 14.344 42.444 C 15.893 43.842 17.89 44.642 19.976 44.701 C 24.685 44.701 29.787 39.442 29.787 24.725 C 29.787 12.107 25.058 10.655 21.506 10.655 C 18.871 10.884 16.379 11.958 14.403 13.716 L 14.344 42.444 Z" fill="currentColor" fill-rule="nonzero"/>
</svg>
