<svg width="40" height="36" viewBox="0 0 20 18" fill="none" xmlns="http://www.w3.org/2000/svg">
<path fill-rule="evenodd" clip-rule="evenodd" d="M19.7411 11.7403L19.8811 12.4303C20.0335 13.0198 19.9092 13.6465 19.5433 14.1332C19.1773 14.6198 18.6097 14.9132 18.0011 14.9303H14.1911C14.192 16.5489 12.9088 17.8764 11.2911 17.9303H3.00108C2.08562 17.9151 1.2272 17.4827 0.67009 16.7562C0.112977 16.0296 -0.0818368 15.0883 0.141082 14.2003L0.351082 13.2003C0.595266 11.8228 1.78222 10.812 3.18108 10.7903H11.1211C11.4754 10.3668 11.9989 10.1216 12.5511 10.1203H17.8411C18.7751 10.1501 19.564 10.8227 19.7411 11.7403ZM17.9811 13.4203C18.1031 13.4158 18.2167 13.3571 18.2911 13.2603C18.4219 13.1283 18.4877 12.9454 18.4711 12.7603L18.3311 12.0703C18.304 11.8468 18.1252 11.6721 17.9011 11.6503H12.6111C12.496 11.6511 12.3882 11.7068 12.3211 11.8003C12.0343 12.1306 11.6185 12.3203 11.1811 12.3203H3.24108C2.55649 12.337 1.98287 12.8431 1.88108 13.5203L1.67108 14.5203C1.56851 15.0128 1.68935 15.5255 2.00108 15.9203C2.24458 16.2274 2.60952 16.4135 3.00108 16.4303H11.2611C12.0659 16.3769 12.6844 15.6966 12.6611 14.8903C12.6774 14.0736 13.3442 13.4201 14.1611 13.4203H17.9811Z" fill="#ffffff"/>
<path fill-rule="evenodd" clip-rule="evenodd" d="M11.1011 5.00031C11.1011 7.20945 9.31022 9.00031 7.10108 9.00031C4.89194 9.00031 3.10108 7.20945 3.10108 5.00031V3.43031C3.10108 1.57464 4.6054 0.0703125 6.46108 0.0703125H7.77108C9.61503 0.086777 11.1012 1.58629 11.1011 3.43031V5.00031ZM6.46108 1.57031C5.43383 1.57031 4.60108 2.40306 4.60108 3.43031L4.63108 5.00031C4.79067 6.25949 5.86183 7.20345 7.13108 7.20345C8.40033 7.20345 9.47149 6.25949 9.63108 5.00031V3.43031C9.63108 2.40306 8.79833 1.57031 7.77108 1.57031H6.46108Z" fill="#ffffff"/>
<path fill-rule="evenodd" clip-rule="evenodd" d="M18.6811 5.25031C18.6811 6.90717 17.3379 8.25031 15.6811 8.25031C14.0242 8.25031 12.6811 6.90717 12.6811 5.25031V4.10031C12.6809 2.72403 13.785 1.60216 15.1611 1.58031H16.1611C17.5528 1.58031 18.6811 2.70855 18.6811 4.10031V5.25031ZM15.1811 3.10031C14.6288 3.10031 14.1811 3.54803 14.1811 4.10031V5.25031C14.1811 6.07874 14.8527 6.75031 15.6811 6.75031C16.5095 6.75031 17.1811 6.07874 17.1811 5.25031V4.10031C17.1811 3.54803 16.7334 3.10031 16.1811 3.10031H15.1811Z" fill="#ffffff"/>
</svg>
