<svg width="40" height="28" viewBox="0 0 20 14" fill="none" xmlns="http://www.w3.org/2000/svg">
<path fill-rule="evenodd" clip-rule="evenodd" d="M16 0H4C1.79086 0 0 1.79086 0 4V10C0 12.2091 1.79086 14 4 14H16C18.2091 14 20 12.2091 20 10V4C20 1.79086 18.2091 0 16 0ZM4 1.5H16C16.663 1.5 17.2989 1.76339 17.7678 2.23223C18.2366 2.70107 18.5 3.33696 18.5 4V8.25H1.5V4C1.5 2.61929 2.61929 1.5 4 1.5ZM4 12.5H16C16.663 12.5 17.2989 12.2366 17.7678 11.7678C18.2366 11.2989 18.5 10.663 18.5 10V9.75H1.5V10C1.5 11.3807 2.61929 12.5 4 12.5Z" fill="#ffffff"/>
</svg>
