<svg width="40" height="42" viewBox="0 0 20 21" fill="none" xmlns="http://www.w3.org/2000/svg">
<path fill-rule="evenodd" clip-rule="evenodd" d="M11.29 0.542914L18.14 5.35291C19.205 6.10138 19.8392 7.32124 19.84 8.62291V15.7529C19.8374 16.8854 19.3849 17.9704 18.5823 18.7693C17.7796 19.5682 16.6925 20.0156 15.56 20.0129H4.28C3.14753 20.0156 2.06038 19.5682 1.25772 18.7693C0.455065 17.9704 0.00264906 16.8854 0 15.7529V8.62291C0.000850723 7.32124 0.635027 6.10138 1.7 5.35291L8.55 0.542914C9.3199 -0.180971 10.5201 -0.180971 11.29 0.542914ZM17.5216 17.7087C18.043 17.1911 18.3374 16.4876 18.34 15.7529V8.62291C18.326 7.82531 17.9322 7.08228 17.28 6.62291L10.43 1.81291L10.32 1.73291C10.2147 1.62541 10.0705 1.56483 9.92 1.56483C9.7695 1.56483 9.62533 1.62541 9.52 1.73291L9.41 1.81291L2.56 6.62291C1.90781 7.08228 1.51401 7.82531 1.5 8.62291V15.7529C1.50265 16.4876 1.79703 17.1911 2.31838 17.7087C2.83973 18.2263 3.54535 18.5156 4.28 18.5129H15.56C16.2947 18.5156 17.0003 18.2263 17.5216 17.7087Z" fill="#ffffff"/>
<path d="M15.99 9.01291L10.45 12.8829C10.286 13.047 10.0608 13.1349 9.82903 13.1254C9.59726 13.1159 9.38003 13.0098 9.23 12.8329L3.85 9.01291C3.63389 8.82601 3.33035 8.77813 3.0672 8.88944C2.80405 9.00074 2.62701 9.2519 2.61062 9.53715C2.59422 9.82241 2.74133 10.0922 2.99 10.2329L8.29 14.0129C8.72459 14.4175 9.29622 14.6426 9.89 14.6429C10.4484 14.6288 10.9808 14.4037 11.38 14.0129L16.85 10.1929C17.1645 9.96016 17.2472 9.52478 17.04 9.19291C16.7977 8.8566 16.3305 8.77652 15.99 9.01291Z" fill="#ffffff"/>
</svg>
